<svg xmlns="http://www.w3.org/2000/svg" xmlns:xlink="http://www.w3.org/1999/xlink" width="206" zoomAndPan="magnify" viewBox="0 0 154.5 171.749995" height="229" preserveAspectRatio="xMidYMid meet" version="1.0"><defs><clipPath id="409525705c"><path d="M 26 57 L 80 57 L 80 167 L 26 167 Z M 26 57 " clip-rule="nonzero"/></clipPath><clipPath id="bdb21248c1"><path d="M 59.445312 53.472656 L 81.714844 60.515625 L 46.757812 171.054688 L 24.488281 164.011719 Z M 59.445312 53.472656 " clip-rule="nonzero"/></clipPath><clipPath id="567da3a047"><path d="M 73.625 57.957031 C 75.847656 58.660156 77.679688 60.246094 78.699219 62.34375 C 79.714844 64.441406 79.824219 66.863281 79 69.042969 L 44.308594 160.828125 C 42.53125 165.53125 37.390625 168.023438 32.597656 166.507812 C 30.375 165.808594 28.542969 164.222656 27.523438 162.125 C 26.507812 160.027344 26.398438 157.605469 27.222656 155.425781 L 61.914062 63.636719 C 63.691406 58.9375 68.832031 56.441406 73.625 57.957031 Z M 73.625 57.957031 " clip-rule="nonzero"/></clipPath><clipPath id="6fcf33026d"><path d="M 58.992188 53.332031 L 82.167969 60.660156 L 47.238281 171.109375 L 24.0625 163.777344 Z M 58.992188 53.332031 " clip-rule="nonzero"/></clipPath><clipPath id="21f096e89b"><path d="M 59.449219 53.476562 L 81.710938 60.515625 L 46.773438 170.992188 L 24.511719 163.953125 Z M 59.449219 53.476562 " clip-rule="nonzero"/></clipPath><clipPath id="225a7d81b3"><path d="M 72 56 L 127 56 L 127 167 L 72 167 Z M 72 56 " clip-rule="nonzero"/></clipPath><clipPath id="a3e7c78beb"><path d="M 104.863281 52.90625 L 128.992188 60.535156 L 94.035156 171.066406 L 69.90625 163.433594 Z M 104.863281 52.90625 " clip-rule="nonzero"/></clipPath><clipPath id="4e91aae6fc"><path d="M 119.113281 57.410156 L 120.828125 57.953125 C 123.050781 58.65625 124.886719 60.246094 125.90625 62.34375 C 126.925781 64.441406 127.035156 66.867188 126.207031 69.050781 L 91.523438 160.820312 C 89.746094 165.527344 84.597656 168.023438 79.800781 166.503906 L 78.085938 165.964844 C 75.863281 165.261719 74.027344 163.671875 73.007812 161.574219 C 71.988281 159.476562 71.878906 157.050781 72.707031 154.867188 L 107.390625 63.097656 C 109.167969 58.390625 114.316406 55.894531 119.113281 57.410156 Z M 119.113281 57.410156 " clip-rule="nonzero"/></clipPath><clipPath id="062b7d4972"><path d="M 104.472656 52.78125 L 129.378906 60.660156 L 94.457031 171.09375 L 69.546875 163.214844 Z M 104.472656 52.78125 " clip-rule="nonzero"/></clipPath><clipPath id="108f085f8f"><path d="M 104.929688 52.925781 L 128.921875 60.515625 L 93.984375 170.992188 L 69.992188 163.402344 Z M 104.929688 52.925781 " clip-rule="nonzero"/></clipPath><clipPath id="e907f211b4"><path d="M 0 0.152344 L 153.4375 0.152344 L 153.4375 153.589844 L 0 153.589844 Z M 0 0.152344 " clip-rule="nonzero"/></clipPath><clipPath id="1198a6dc0b"><path d="M 22.425781 0.152344 L 131.011719 0.152344 C 136.957031 0.152344 142.664062 2.515625 146.867188 6.722656 C 151.074219 10.925781 153.4375 16.632812 153.4375 22.578125 L 153.4375 131.164062 C 153.4375 137.109375 151.074219 142.816406 146.867188 147.019531 C 142.664062 151.226562 136.957031 153.589844 131.011719 153.589844 L 22.425781 153.589844 C 16.480469 153.589844 10.773438 151.226562 6.570312 147.019531 C 2.363281 142.816406 0 137.109375 0 131.164062 L 0 22.578125 C 0 16.632812 2.363281 10.925781 6.570312 6.722656 C 10.773438 2.515625 16.480469 0.152344 22.425781 0.152344 Z M 22.425781 0.152344 " clip-rule="nonzero"/></clipPath><linearGradient x1="128" gradientTransform="matrix(0.599364, 0, 0, 0.599364, 0.000000000000701168, 0.152417)" y1="0" x2="128" gradientUnits="userSpaceOnUse" y2="255.999994" id="e05fee91df"><stop stop-opacity="1" stop-color="rgb(56.898499%, 64.698792%, 100%)" offset="0"/><stop stop-opacity="1" stop-color="rgb(56.707764%, 64.538574%, 100%)" offset="0.015625"/><stop stop-opacity="1" stop-color="rgb(56.32782%, 64.221191%, 100%)" offset="0.03125"/><stop stop-opacity="1" stop-color="rgb(55.94635%, 63.902283%, 100%)" offset="0.046875"/><stop stop-opacity="1" stop-color="rgb(55.56488%, 63.583374%, 100%)" offset="0.0625"/><stop stop-opacity="1" stop-color="rgb(55.183411%, 63.264465%, 100%)" offset="0.078125"/><stop stop-opacity="1" stop-color="rgb(54.801941%, 62.945557%, 100%)" offset="0.09375"/><stop stop-opacity="1" stop-color="rgb(54.420471%, 62.626648%, 100%)" offset="0.109375"/><stop stop-opacity="1" stop-color="rgb(54.039001%, 62.307739%, 100%)" offset="0.125"/><stop stop-opacity="1" stop-color="rgb(53.659058%, 61.988831%, 100%)" offset="0.140625"/><stop stop-opacity="1" stop-color="rgb(53.277588%, 61.669922%, 100%)" offset="0.15625"/><stop stop-opacity="1" stop-color="rgb(52.896118%, 61.351013%, 100%)" offset="0.171875"/><stop stop-opacity="1" stop-color="rgb(52.514648%, 61.03363%, 100%)" offset="0.1875"/><stop stop-opacity="1" stop-color="rgb(52.133179%, 60.714722%, 100%)" offset="0.203125"/><stop stop-opacity="1" stop-color="rgb(51.751709%, 60.395813%, 100%)" offset="0.21875"/><stop stop-opacity="1" stop-color="rgb(51.371765%, 60.076904%, 100%)" offset="0.234375"/><stop stop-opacity="1" stop-color="rgb(50.990295%, 59.757996%, 100%)" offset="0.25"/><stop stop-opacity="1" stop-color="rgb(50.608826%, 59.439087%, 100%)" offset="0.265625"/><stop stop-opacity="1" stop-color="rgb(50.227356%, 59.120178%, 100%)" offset="0.28125"/><stop stop-opacity="1" stop-color="rgb(49.845886%, 58.80127%, 100%)" offset="0.296875"/><stop stop-opacity="1" stop-color="rgb(49.464417%, 58.482361%, 100%)" offset="0.3125"/><stop stop-opacity="1" stop-color="rgb(49.082947%, 58.163452%, 100%)" offset="0.328125"/><stop stop-opacity="1" stop-color="rgb(48.703003%, 57.846069%, 100%)" offset="0.34375"/><stop stop-opacity="1" stop-color="rgb(48.321533%, 57.527161%, 100%)" offset="0.359375"/><stop stop-opacity="1" stop-color="rgb(47.940063%, 57.208252%, 100%)" offset="0.375"/><stop stop-opacity="1" stop-color="rgb(47.558594%, 56.889343%, 100%)" offset="0.390625"/><stop stop-opacity="1" stop-color="rgb(47.177124%, 56.570435%, 100%)" offset="0.40625"/><stop stop-opacity="1" stop-color="rgb(46.795654%, 56.251526%, 100%)" offset="0.421875"/><stop stop-opacity="1" stop-color="rgb(46.414185%, 55.932617%, 100%)" offset="0.4375"/><stop stop-opacity="1" stop-color="rgb(46.034241%, 55.613708%, 100%)" offset="0.453125"/><stop stop-opacity="1" stop-color="rgb(45.652771%, 55.2948%, 100%)" offset="0.46875"/><stop stop-opacity="1" stop-color="rgb(45.271301%, 54.977417%, 100%)" offset="0.484375"/><stop stop-opacity="1" stop-color="rgb(44.889832%, 54.658508%, 100%)" offset="0.5"/><stop stop-opacity="1" stop-color="rgb(44.508362%, 54.3396%, 100%)" offset="0.515625"/><stop stop-opacity="1" stop-color="rgb(44.126892%, 54.020691%, 100%)" offset="0.53125"/><stop stop-opacity="1" stop-color="rgb(43.745422%, 53.701782%, 100%)" offset="0.546875"/><stop stop-opacity="1" stop-color="rgb(43.365479%, 53.382874%, 100%)" offset="0.5625"/><stop stop-opacity="1" stop-color="rgb(42.984009%, 53.063965%, 100%)" offset="0.578125"/><stop stop-opacity="1" stop-color="rgb(42.602539%, 52.745056%, 100%)" offset="0.59375"/><stop stop-opacity="1" stop-color="rgb(42.221069%, 52.426147%, 100%)" offset="0.609375"/><stop stop-opacity="1" stop-color="rgb(41.8396%, 52.107239%, 100%)" offset="0.625"/><stop stop-opacity="1" stop-color="rgb(41.45813%, 51.789856%, 100%)" offset="0.640625"/><stop stop-opacity="1" stop-color="rgb(41.07666%, 51.470947%, 100%)" offset="0.65625"/><stop stop-opacity="1" stop-color="rgb(40.696716%, 51.152039%, 100%)" offset="0.671875"/><stop stop-opacity="1" stop-color="rgb(40.315247%, 50.83313%, 100%)" offset="0.6875"/><stop stop-opacity="1" stop-color="rgb(39.933777%, 50.514221%, 100%)" offset="0.703125"/><stop stop-opacity="1" stop-color="rgb(39.552307%, 50.195312%, 100%)" offset="0.71875"/><stop stop-opacity="1" stop-color="rgb(39.170837%, 49.876404%, 100%)" offset="0.734375"/><stop stop-opacity="1" stop-color="rgb(38.789368%, 49.557495%, 100%)" offset="0.75"/><stop stop-opacity="1" stop-color="rgb(38.407898%, 49.238586%, 100%)" offset="0.765625"/><stop stop-opacity="1" stop-color="rgb(38.027954%, 48.919678%, 100%)" offset="0.78125"/><stop stop-opacity="1" stop-color="rgb(37.646484%, 48.602295%, 100%)" offset="0.796875"/><stop stop-opacity="1" stop-color="rgb(37.265015%, 48.283386%, 100%)" offset="0.8125"/><stop stop-opacity="1" stop-color="rgb(36.883545%, 47.964478%, 100%)" offset="0.828125"/><stop stop-opacity="1" stop-color="rgb(36.502075%, 47.645569%, 100%)" offset="0.84375"/><stop stop-opacity="1" stop-color="rgb(36.120605%, 47.32666%, 100%)" offset="0.859375"/><stop stop-opacity="1" stop-color="rgb(35.739136%, 47.007751%, 100%)" offset="0.875"/><stop stop-opacity="1" stop-color="rgb(35.359192%, 46.688843%, 100%)" offset="0.890625"/><stop stop-opacity="1" stop-color="rgb(34.977722%, 46.369934%, 100%)" offset="0.90625"/><stop stop-opacity="1" stop-color="rgb(34.596252%, 46.051025%, 100%)" offset="0.921875"/><stop stop-opacity="1" stop-color="rgb(34.214783%, 45.733643%, 100%)" offset="0.9375"/><stop stop-opacity="1" stop-color="rgb(33.833313%, 45.414734%, 100%)" offset="0.953125"/><stop stop-opacity="1" stop-color="rgb(33.451843%, 45.095825%, 100%)" offset="0.96875"/><stop stop-opacity="1" stop-color="rgb(33.070374%, 44.776917%, 100%)" offset="0.984375"/><stop stop-opacity="1" stop-color="rgb(32.69043%, 44.458008%, 100%)" offset="1"/></linearGradient><clipPath id="be1325f106"><path d="M 22 37 L 79 37 L 79 166 L 22 166 Z M 22 37 " clip-rule="nonzero"/></clipPath><clipPath id="c049a3f72a"><path d="M 61.703125 33.730469 L 80.351562 39.628906 L 39.355469 169.265625 L 20.707031 163.367188 Z M 61.703125 33.730469 " clip-rule="nonzero"/></clipPath><clipPath id="3585d1106f"><path d="M 74.070312 37.644531 C 75.785156 38.1875 77.207031 39.410156 78 41.023438 C 78.789062 42.640625 78.886719 44.511719 78.265625 46.199219 L 35.964844 160.925781 C 34.628906 164.550781 30.679688 166.484375 26.996094 165.320312 C 25.277344 164.777344 23.859375 163.554688 23.066406 161.941406 C 22.277344 160.324219 22.179688 158.453125 22.800781 156.765625 L 65.101562 42.039062 C 66.4375 38.414062 70.386719 36.480469 74.070312 37.644531 Z M 74.070312 37.644531 " clip-rule="nonzero"/></clipPath><clipPath id="a53ea2aa32"><path d="M 52 89 L 100 89 L 100 104 L 52 104 Z M 52 89 " clip-rule="nonzero"/></clipPath><clipPath id="6cde68ee35"><path d="M 96.292969 83.085938 L 99.457031 103.027344 L 55.371094 110.019531 L 52.207031 90.082031 Z M 96.292969 83.085938 " clip-rule="nonzero"/></clipPath><clipPath id="4367333610"><path d="M 97.292969 89.394531 L 99.457031 103.027344 L 54.40625 103.707031 L 52.246094 90.074219 Z M 97.292969 89.394531 " clip-rule="nonzero"/></clipPath><clipPath id="09ebe9ea73"><path d="M 62 56 L 111 56 L 111 71 L 62 71 Z M 62 56 " clip-rule="nonzero"/></clipPath><clipPath id="0cf67e0127"><path d="M 106.992188 49.945312 L 110.15625 69.882812 L 66.070312 76.878906 L 62.90625 56.9375 Z M 106.992188 49.945312 " clip-rule="nonzero"/></clipPath><clipPath id="a26ad1b639"><path d="M 107.996094 56.25 L 110.15625 69.882812 L 65.109375 70.566406 L 62.945312 56.933594 Z M 107.996094 56.25 " clip-rule="nonzero"/></clipPath><clipPath id="26f8e56a38"><path d="M 69 37 L 126 37 L 126 166 L 69 166 Z M 69 37 " clip-rule="nonzero"/></clipPath><clipPath id="b71058bbb3"><path d="M 108.914062 33.730469 L 127.5625 39.628906 L 86.566406 169.265625 L 67.917969 163.367188 Z M 108.914062 33.730469 " clip-rule="nonzero"/></clipPath><clipPath id="93ab8feab8"><path d="M 121.28125 37.644531 C 123 38.1875 124.417969 39.410156 125.210938 41.023438 C 126.003906 42.640625 126.097656 44.511719 125.476562 46.199219 L 83.175781 160.925781 C 81.839844 164.550781 77.890625 166.484375 74.207031 165.320312 C 72.492188 164.777344 71.070312 163.554688 70.277344 161.941406 C 69.488281 160.324219 69.390625 158.453125 70.015625 156.765625 L 112.3125 42.039062 C 113.648438 38.414062 117.597656 36.480469 121.28125 37.644531 Z M 121.28125 37.644531 " clip-rule="nonzero"/></clipPath><clipPath id="715a85c35a"><path d="M 39 122 L 87 122 L 87 137 L 39 137 Z M 39 122 " clip-rule="nonzero"/></clipPath><clipPath id="2b2d70d19b"><path d="M 83.386719 116.230469 L 86.550781 136.167969 L 42.464844 143.164062 L 39.300781 123.222656 Z M 83.386719 116.230469 " clip-rule="nonzero"/></clipPath><clipPath id="2eb76cae17"><path d="M 84.390625 122.535156 L 86.550781 136.167969 L 41.503906 136.851562 L 39.339844 123.21875 Z M 84.390625 122.535156 " clip-rule="nonzero"/></clipPath></defs><g clip-path="url(#409525705c)"><g clip-path="url(#bdb21248c1)"><g clip-path="url(#567da3a047)"><g clip-path="url(#6fcf33026d)"><g clip-path="url(#21f096e89b)"><path fill="#5371ff" d="M 31.257812 41.082031 L -5.679688 157.878906 L 74.96875 183.386719 L 111.90625 66.585938 Z M 31.257812 41.082031 " fill-opacity="1" fill-rule="nonzero"/></g></g></g></g></g><g clip-path="url(#225a7d81b3)"><g clip-path="url(#a3e7c78beb)"><g clip-path="url(#4e91aae6fc)"><g clip-path="url(#062b7d4972)"><g clip-path="url(#108f085f8f)"><path fill="#5371ff" d="M 76.894531 40.039062 L 39.644531 157.828125 L 122.019531 183.878906 L 159.269531 66.089844 Z M 76.894531 40.039062 " fill-opacity="1" fill-rule="nonzero"/></g></g></g></g></g><g clip-path="url(#e907f211b4)"><g clip-path="url(#1198a6dc0b)"><path fill="url(#e05fee91df)" d="M 0 0.152344 L 0 153.589844 L 153.4375 153.589844 L 153.4375 0.152344 Z M 0 0.152344 " fill-rule="nonzero"/></g></g><g clip-path="url(#be1325f106)"><g clip-path="url(#c049a3f72a)"><g clip-path="url(#3585d1106f)"><path fill="#ffffff" d="M 61.402344 33.636719 L 80.652344 39.726562 L 39.65625 169.359375 L 20.40625 163.273438 Z M 61.402344 33.636719 " fill-opacity="1" fill-rule="nonzero"/></g></g></g><g clip-path="url(#a53ea2aa32)"><g clip-path="url(#6cde68ee35)"><g clip-path="url(#4367333610)"><path fill="#ffffff" d="M 96.292969 83.085938 L 99.457031 103.027344 L 55.371094 110.019531 L 52.207031 90.082031 Z M 96.292969 83.085938 " fill-opacity="1" fill-rule="nonzero"/></g></g></g><g clip-path="url(#09ebe9ea73)"><g clip-path="url(#0cf67e0127)"><g clip-path="url(#a26ad1b639)"><path fill="#ffffff" d="M 106.992188 49.945312 L 110.15625 69.882812 L 66.070312 76.878906 L 62.90625 56.9375 Z M 106.992188 49.945312 " fill-opacity="1" fill-rule="nonzero"/></g></g></g><g clip-path="url(#26f8e56a38)"><g clip-path="url(#b71058bbb3)"><g clip-path="url(#93ab8feab8)"><path fill="#ffffff" d="M 108.613281 33.636719 L 127.863281 39.726562 L 86.867188 169.359375 L 67.617188 163.273438 Z M 108.613281 33.636719 " fill-opacity="1" fill-rule="nonzero"/></g></g></g><g clip-path="url(#715a85c35a)"><g clip-path="url(#2b2d70d19b)"><g clip-path="url(#2eb76cae17)"><path fill="#ffffff" d="M 83.386719 116.230469 L 86.550781 136.167969 L 42.464844 143.164062 L 39.300781 123.222656 Z M 83.386719 116.230469 " fill-opacity="1" fill-rule="nonzero"/></g></g></g></svg>