<svg xmlns="http://www.w3.org/2000/svg" xmlns:xlink="http://www.w3.org/1999/xlink" width="500" zoomAndPan="magnify" viewBox="0 0 375 374.999991" height="500" preserveAspectRatio="xMidYMid meet" version="1.0"><defs><clipPath id="3e8e550802"><path d="M 63.726562 60.476562 L 310.191406 60.476562 L 310.191406 311.445312 L 63.726562 311.445312 Z M 63.726562 60.476562 " clip-rule="nonzero"/></clipPath><clipPath id="67734ccb2b"><path d="M 64.476562 60.476562 L 309.441406 60.476562 C 309.640625 60.476562 309.832031 60.558594 309.972656 60.699219 C 310.113281 60.839844 310.191406 61.027344 310.191406 61.226562 L 310.191406 310.695312 C 310.191406 310.894531 310.113281 311.085938 309.972656 311.226562 C 309.832031 311.367188 309.640625 311.445312 309.441406 311.445312 L 64.476562 311.445312 C 64.277344 311.445312 64.085938 311.367188 63.945312 311.226562 C 63.804688 311.085938 63.726562 310.894531 63.726562 310.695312 L 63.726562 61.226562 C 63.726562 61.027344 63.804688 60.839844 63.945312 60.699219 C 64.085938 60.558594 64.277344 60.476562 64.476562 60.476562 Z M 64.476562 60.476562 " clip-rule="nonzero"/></clipPath><linearGradient x1="128" gradientTransform="matrix(0.962765, 0, 0, 0.962765, 63.725326, 60.476349)" y1="0.00155997" x2="128" gradientUnits="userSpaceOnUse" y2="260.674993" id="c89e31ca8b"><stop stop-opacity="1" stop-color="rgb(43.899536%, 53.69873%, 100%)" offset="0"/><stop stop-opacity="1" stop-color="rgb(43.721008%, 53.552246%, 100%)" offset="0.03125"/><stop stop-opacity="1" stop-color="rgb(43.363953%, 53.257751%, 100%)" offset="0.0625"/><stop stop-opacity="1" stop-color="rgb(43.008423%, 52.964783%, 100%)" offset="0.09375"/><stop stop-opacity="1" stop-color="rgb(42.651367%, 52.670288%, 100%)" offset="0.125"/><stop stop-opacity="1" stop-color="rgb(42.295837%, 52.377319%, 100%)" offset="0.15625"/><stop stop-opacity="1" stop-color="rgb(41.938782%, 52.082825%, 100%)" offset="0.1875"/><stop stop-opacity="1" stop-color="rgb(41.583252%, 51.789856%, 100%)" offset="0.21875"/><stop stop-opacity="1" stop-color="rgb(41.226196%, 51.495361%, 100%)" offset="0.25"/><stop stop-opacity="1" stop-color="rgb(40.870667%, 51.202393%, 100%)" offset="0.28125"/><stop stop-opacity="1" stop-color="rgb(40.515137%, 50.907898%, 100%)" offset="0.3125"/><stop stop-opacity="1" stop-color="rgb(40.158081%, 50.614929%, 100%)" offset="0.34375"/><stop stop-opacity="1" stop-color="rgb(39.802551%, 50.320435%, 100%)" offset="0.375"/><stop stop-opacity="1" stop-color="rgb(39.445496%, 50.027466%, 100%)" offset="0.40625"/><stop stop-opacity="1" stop-color="rgb(39.089966%, 49.732971%, 100%)" offset="0.4375"/><stop stop-opacity="1" stop-color="rgb(38.73291%, 49.440002%, 100%)" offset="0.46875"/><stop stop-opacity="1" stop-color="rgb(38.37738%, 49.145508%, 100%)" offset="0.5"/><stop stop-opacity="1" stop-color="rgb(38.020325%, 48.852539%, 100%)" offset="0.53125"/><stop stop-opacity="1" stop-color="rgb(37.664795%, 48.558044%, 100%)" offset="0.5625"/><stop stop-opacity="1" stop-color="rgb(37.307739%, 48.265076%, 100%)" offset="0.59375"/><stop stop-opacity="1" stop-color="rgb(36.952209%, 47.970581%, 100%)" offset="0.625"/><stop stop-opacity="1" stop-color="rgb(36.595154%, 47.677612%, 100%)" offset="0.65625"/><stop stop-opacity="1" stop-color="rgb(36.239624%, 47.383118%, 100%)" offset="0.6875"/><stop stop-opacity="1" stop-color="rgb(35.882568%, 47.090149%, 100%)" offset="0.71875"/><stop stop-opacity="1" stop-color="rgb(35.527039%, 46.795654%, 100%)" offset="0.75"/><stop stop-opacity="1" stop-color="rgb(35.169983%, 46.502686%, 100%)" offset="0.78125"/><stop stop-opacity="1" stop-color="rgb(34.814453%, 46.208191%, 100%)" offset="0.8125"/><stop stop-opacity="1" stop-color="rgb(34.458923%, 45.915222%, 100%)" offset="0.84375"/><stop stop-opacity="1" stop-color="rgb(34.101868%, 45.620728%, 100%)" offset="0.875"/><stop stop-opacity="1" stop-color="rgb(33.746338%, 45.326233%, 100%)" offset="0.90625"/><stop stop-opacity="1" stop-color="rgb(33.389282%, 45.033264%, 100%)" offset="0.9375"/><stop stop-opacity="1" stop-color="rgb(33.033752%, 44.73877%, 100%)" offset="0.96875"/><stop stop-opacity="1" stop-color="rgb(32.676697%, 44.445801%, 100%)" offset="1"/></linearGradient><clipPath id="beba9244ff"><path d="M 53 23 L 204 23 L 204 352 L 53 352 Z M 53 23 " clip-rule="nonzero"/></clipPath><clipPath id="5d5e497830"><path d="M 155.761719 18.457031 L 203.726562 33.625 L 101.578125 356.625 L 53.613281 341.457031 Z M 155.761719 18.457031 " clip-rule="nonzero"/></clipPath><clipPath id="7bc2377d86"><path d="M 171.648438 23.480469 L 203.011719 33.398438 C 203.195312 33.457031 203.351562 33.589844 203.4375 33.765625 C 203.523438 33.941406 203.535156 34.144531 203.464844 34.328125 L 86.691406 351.042969 C 86.546875 351.4375 86.117188 351.648438 85.71875 351.519531 L 54.355469 341.601562 C 54.167969 341.542969 54.015625 341.410156 53.929688 341.234375 C 53.84375 341.058594 53.832031 340.855469 53.898438 340.671875 L 170.671875 23.957031 C 170.816406 23.566406 171.246094 23.355469 171.648438 23.480469 Z M 171.648438 23.480469 " clip-rule="nonzero"/></clipPath><clipPath id="77a9af179f"><path d="M 133 163 L 251 163 L 251 200 L 133 200 Z M 133 163 " clip-rule="nonzero"/></clipPath><clipPath id="b5cf504592"><path d="M 242.695312 148.175781 L 250.578125 197.859375 L 140.730469 215.285156 L 132.847656 165.605469 Z M 242.695312 148.175781 " clip-rule="nonzero"/></clipPath><clipPath id="158d7aad26"><path d="M 245.304688 164.628906 L 250.460938 197.117188 C 250.488281 197.304688 250.4375 197.496094 250.316406 197.636719 C 250.191406 197.78125 250.015625 197.867188 249.828125 197.871094 L 139.082031 199.546875 C 138.652344 199.554688 138.285156 199.242188 138.214844 198.816406 L 133.0625 166.328125 C 133.03125 166.144531 133.085938 165.953125 133.207031 165.808594 C 133.328125 165.664062 133.503906 165.582031 133.695312 165.578125 L 244.4375 163.902344 C 244.867188 163.894531 245.238281 164.207031 245.304688 164.628906 Z M 245.304688 164.628906 " clip-rule="nonzero"/></clipPath><clipPath id="5a3895d183"><path d="M 159 80 L 278 80 L 278 116 L 159 116 Z M 159 80 " clip-rule="nonzero"/></clipPath><clipPath id="fbaf484d14"><path d="M 269.359375 64.355469 L 277.242188 114.039062 L 167.394531 131.464844 L 159.515625 81.785156 Z M 269.359375 64.355469 " clip-rule="nonzero"/></clipPath><clipPath id="392102313d"><path d="M 271.96875 80.8125 L 277.125 113.296875 C 277.152344 113.484375 277.101562 113.675781 276.980469 113.820312 C 276.859375 113.964844 276.679688 114.046875 276.492188 114.050781 L 165.75 115.726562 C 165.316406 115.734375 164.949219 115.421875 164.878906 114.996094 L 159.726562 82.511719 C 159.695312 82.324219 159.75 82.132812 159.871094 81.988281 C 159.992188 81.84375 160.171875 81.761719 160.359375 81.757812 L 271.101562 80.082031 C 271.53125 80.074219 271.902344 80.386719 271.96875 80.8125 Z M 271.96875 80.8125 " clip-rule="nonzero"/></clipPath><clipPath id="a796c984b8"><path d="M 171 23 L 322 23 L 322 352 L 171 352 Z M 171 23 " clip-rule="nonzero"/></clipPath><clipPath id="0b4467c42e"><path d="M 273.394531 18.457031 L 321.355469 33.625 L 219.207031 356.625 L 171.246094 341.457031 Z M 273.394531 18.457031 " clip-rule="nonzero"/></clipPath><clipPath id="faad6559fb"><path d="M 289.277344 23.480469 L 320.640625 33.398438 C 320.828125 33.457031 320.984375 33.589844 321.070312 33.765625 C 321.15625 33.941406 321.164062 34.144531 321.097656 34.328125 L 204.324219 351.042969 C 204.179688 351.4375 203.75 351.648438 203.351562 351.519531 L 171.988281 341.601562 C 171.800781 341.542969 171.644531 341.410156 171.558594 341.234375 C 171.472656 341.058594 171.464844 340.855469 171.53125 340.671875 L 288.304688 23.957031 C 288.449219 23.566406 288.878906 23.355469 289.277344 23.480469 Z M 289.277344 23.480469 " clip-rule="nonzero"/></clipPath><clipPath id="918ebec63b"><path d="M 100 247 L 219 247 L 219 284 L 100 284 Z M 100 247 " clip-rule="nonzero"/></clipPath><clipPath id="387648b844"><path d="M 210.542969 231.996094 L 218.425781 281.679688 L 108.582031 299.105469 L 100.699219 249.421875 Z M 210.542969 231.996094 " clip-rule="nonzero"/></clipPath><clipPath id="ff6ab4dc1c"><path d="M 213.152344 248.449219 L 218.308594 280.9375 C 218.335938 281.125 218.285156 281.3125 218.164062 281.457031 C 218.042969 281.601562 217.863281 281.6875 217.675781 281.691406 L 106.933594 283.367188 C 106.5 283.371094 106.132812 283.0625 106.066406 282.636719 L 100.910156 250.148438 C 100.878906 249.964844 100.933594 249.773438 101.054688 249.628906 C 101.175781 249.484375 101.355469 249.398438 101.542969 249.398438 L 212.285156 247.722656 C 212.714844 247.714844 213.085938 248.023438 213.152344 248.449219 Z M 213.152344 248.449219 " clip-rule="nonzero"/></clipPath></defs><g clip-path="url(#3e8e550802)"><g clip-path="url(#67734ccb2b)"><path fill="url(#c89e31ca8b)" d="M 63.726562 60.476562 L 63.726562 311.445312 L 310.191406 311.445312 L 310.191406 60.476562 Z M 63.726562 60.476562 " fill-rule="nonzero"/></g></g><g clip-path="url(#beba9244ff)"><g clip-path="url(#5d5e497830)"><g clip-path="url(#7bc2377d86)"><path fill="#ffffff" d="M 155.761719 18.457031 L 203.726562 33.625 L 101.578125 356.625 L 53.613281 341.457031 Z M 155.761719 18.457031 " fill-opacity="1" fill-rule="nonzero"/></g></g></g><g clip-path="url(#77a9af179f)"><g clip-path="url(#b5cf504592)"><g clip-path="url(#158d7aad26)"><path fill="#ffffff" d="M 242.695312 148.175781 L 250.578125 197.859375 L 140.730469 215.285156 L 132.847656 165.605469 Z M 242.695312 148.175781 " fill-opacity="1" fill-rule="nonzero"/></g></g></g><g clip-path="url(#5a3895d183)"><g clip-path="url(#fbaf484d14)"><g clip-path="url(#392102313d)"><path fill="#ffffff" d="M 269.359375 64.355469 L 277.242188 114.039062 L 167.394531 131.464844 L 159.515625 81.785156 Z M 269.359375 64.355469 " fill-opacity="1" fill-rule="nonzero"/></g></g></g><g clip-path="url(#a796c984b8)"><g clip-path="url(#0b4467c42e)"><g clip-path="url(#faad6559fb)"><path fill="#ffffff" d="M 273.394531 18.457031 L 321.355469 33.625 L 219.207031 356.625 L 171.246094 341.457031 Z M 273.394531 18.457031 " fill-opacity="1" fill-rule="nonzero"/></g></g></g><g clip-path="url(#918ebec63b)"><g clip-path="url(#387648b844)"><g clip-path="url(#ff6ab4dc1c)"><path fill="#ffffff" d="M 210.542969 231.996094 L 218.425781 281.679688 L 108.582031 299.105469 L 100.699219 249.421875 Z M 210.542969 231.996094 " fill-opacity="1" fill-rule="nonzero"/></g></g></g></svg>