<svg xmlns="http://www.w3.org/2000/svg" xmlns:xlink="http://www.w3.org/1999/xlink" width="300" zoomAndPan="magnify" viewBox="0 0 224.87999 74.999997" height="100" preserveAspectRatio="xMidYMid meet" version="1.0"><defs><g/><clipPath id="d7c8b6e395"><path d="M 5.152344 21.894531 L 35.433594 21.894531 L 35.433594 52.726562 L 5.152344 52.726562 Z M 5.152344 21.894531 " clip-rule="nonzero"/></clipPath><clipPath id="4822ce10b0"><path d="M 5.902344 21.894531 L 34.683594 21.894531 C 34.882812 21.894531 35.074219 21.972656 35.214844 22.113281 C 35.355469 22.253906 35.433594 22.445312 35.433594 22.644531 L 35.433594 51.976562 C 35.433594 52.175781 35.355469 52.367188 35.214844 52.507812 C 35.074219 52.648438 34.882812 52.726562 34.683594 52.726562 L 5.902344 52.726562 C 5.703125 52.726562 5.511719 52.648438 5.375 52.507812 C 5.234375 52.367188 5.152344 52.175781 5.152344 51.976562 L 5.152344 22.644531 C 5.152344 22.445312 5.234375 22.253906 5.375 22.113281 C 5.511719 21.972656 5.703125 21.894531 5.902344 21.894531 Z M 5.902344 21.894531 " clip-rule="nonzero"/></clipPath><linearGradient x1="128" gradientTransform="matrix(0.118281, 0, 0, 0.118281, 5.153517, 21.894484)" y1="0.00156399" x2="128" gradientUnits="userSpaceOnUse" y2="260.67499" id="e9d3d890ee"><stop stop-opacity="1" stop-color="rgb(43.899536%, 53.69873%, 100%)" offset="0"/><stop stop-opacity="1" stop-color="rgb(43.721008%, 53.552246%, 100%)" offset="0.03125"/><stop stop-opacity="1" stop-color="rgb(43.363953%, 53.257751%, 100%)" offset="0.0625"/><stop stop-opacity="1" stop-color="rgb(43.008423%, 52.964783%, 100%)" offset="0.09375"/><stop stop-opacity="1" stop-color="rgb(42.651367%, 52.670288%, 100%)" offset="0.125"/><stop stop-opacity="1" stop-color="rgb(42.295837%, 52.377319%, 100%)" offset="0.15625"/><stop stop-opacity="1" stop-color="rgb(41.938782%, 52.082825%, 100%)" offset="0.1875"/><stop stop-opacity="1" stop-color="rgb(41.583252%, 51.789856%, 100%)" offset="0.21875"/><stop stop-opacity="1" stop-color="rgb(41.226196%, 51.495361%, 100%)" offset="0.25"/><stop stop-opacity="1" stop-color="rgb(40.870667%, 51.202393%, 100%)" offset="0.28125"/><stop stop-opacity="1" stop-color="rgb(40.515137%, 50.907898%, 100%)" offset="0.3125"/><stop stop-opacity="1" stop-color="rgb(40.158081%, 50.614929%, 100%)" offset="0.34375"/><stop stop-opacity="1" stop-color="rgb(39.802551%, 50.320435%, 100%)" offset="0.375"/><stop stop-opacity="1" stop-color="rgb(39.445496%, 50.027466%, 100%)" offset="0.40625"/><stop stop-opacity="1" stop-color="rgb(39.089966%, 49.732971%, 100%)" offset="0.4375"/><stop stop-opacity="1" stop-color="rgb(38.73291%, 49.440002%, 100%)" offset="0.46875"/><stop stop-opacity="1" stop-color="rgb(38.37738%, 49.145508%, 100%)" offset="0.5"/><stop stop-opacity="1" stop-color="rgb(38.020325%, 48.852539%, 100%)" offset="0.53125"/><stop stop-opacity="1" stop-color="rgb(37.664795%, 48.558044%, 100%)" offset="0.5625"/><stop stop-opacity="1" stop-color="rgb(37.307739%, 48.265076%, 100%)" offset="0.59375"/><stop stop-opacity="1" stop-color="rgb(36.952209%, 47.970581%, 100%)" offset="0.625"/><stop stop-opacity="1" stop-color="rgb(36.595154%, 47.677612%, 100%)" offset="0.65625"/><stop stop-opacity="1" stop-color="rgb(36.239624%, 47.383118%, 100%)" offset="0.6875"/><stop stop-opacity="1" stop-color="rgb(35.882568%, 47.090149%, 100%)" offset="0.71875"/><stop stop-opacity="1" stop-color="rgb(35.527039%, 46.795654%, 100%)" offset="0.75"/><stop stop-opacity="1" stop-color="rgb(35.169983%, 46.502686%, 100%)" offset="0.78125"/><stop stop-opacity="1" stop-color="rgb(34.814453%, 46.208191%, 100%)" offset="0.8125"/><stop stop-opacity="1" stop-color="rgb(34.458923%, 45.915222%, 100%)" offset="0.84375"/><stop stop-opacity="1" stop-color="rgb(34.101868%, 45.620728%, 100%)" offset="0.875"/><stop stop-opacity="1" stop-color="rgb(33.746338%, 45.326233%, 100%)" offset="0.90625"/><stop stop-opacity="1" stop-color="rgb(33.389282%, 45.033264%, 100%)" offset="0.9375"/><stop stop-opacity="1" stop-color="rgb(33.033752%, 44.73877%, 100%)" offset="0.96875"/><stop stop-opacity="1" stop-color="rgb(32.676697%, 44.445801%, 100%)" offset="1"/></linearGradient><clipPath id="3bc20d3190"><path d="M 4 17 L 23 17 L 23 58 L 4 58 Z M 4 17 " clip-rule="nonzero"/></clipPath><clipPath id="abc998c2a8"><path d="M 16.484375 16.742188 L 22.328125 18.589844 L 9.78125 58.269531 L 3.933594 56.421875 Z M 16.484375 16.742188 " clip-rule="nonzero"/></clipPath><clipPath id="42c1234996"><path d="M 19.039062 17.546875 L 21.636719 18.371094 C 21.824219 18.429688 21.976562 18.5625 22.0625 18.738281 C 22.148438 18.914062 22.160156 19.117188 22.09375 19.300781 L 8.203125 56.976562 C 8.054688 57.371094 7.628906 57.578125 7.226562 57.453125 L 4.628906 56.632812 C 4.441406 56.574219 4.289062 56.441406 4.203125 56.265625 C 4.117188 56.089844 4.105469 55.886719 4.171875 55.703125 L 18.0625 18.027344 C 18.210938 17.632812 18.636719 17.421875 19.039062 17.546875 Z M 19.039062 17.546875 " clip-rule="nonzero"/></clipPath><clipPath id="acc469fa2c"><path d="M 13 34 L 28 34 L 28 39 L 13 39 Z M 13 34 " clip-rule="nonzero"/></clipPath><clipPath id="cdeaa1959a"><path d="M 27.148438 32.765625 L 28.089844 38.679688 L 14.59375 40.820312 L 13.65625 34.90625 Z M 27.148438 32.765625 " clip-rule="nonzero"/></clipPath><clipPath id="c7844a1e73"><path d="M 27.558594 35.339844 L 27.984375 38.03125 C 28.015625 38.21875 27.960938 38.410156 27.839844 38.554688 C 27.71875 38.699219 27.542969 38.78125 27.355469 38.785156 L 15.0625 38.972656 C 14.632812 38.976562 14.261719 38.667969 14.195312 38.242188 L 13.769531 35.550781 C 13.738281 35.363281 13.792969 35.171875 13.914062 35.027344 C 14.035156 34.886719 14.210938 34.800781 14.402344 34.796875 L 26.691406 34.613281 C 27.121094 34.605469 27.492188 34.914062 27.558594 35.339844 Z M 27.558594 35.339844 " clip-rule="nonzero"/></clipPath><clipPath id="e75b3270c1"><path d="M 17 24 L 32 24 L 32 29 L 17 29 Z M 17 24 " clip-rule="nonzero"/></clipPath><clipPath id="af7c6d7b57"><path d="M 30.425781 22.46875 L 31.363281 28.378906 L 17.867188 30.519531 L 16.929688 24.609375 Z M 30.425781 22.46875 " clip-rule="nonzero"/></clipPath><clipPath id="2c215d61d7"><path d="M 30.835938 25.042969 L 31.261719 27.734375 C 31.292969 27.921875 31.238281 28.109375 31.117188 28.253906 C 30.996094 28.398438 30.816406 28.484375 30.628906 28.488281 L 18.339844 28.671875 C 17.910156 28.679688 17.539062 28.367188 17.472656 27.945312 L 17.042969 25.25 C 17.015625 25.066406 17.066406 24.875 17.1875 24.730469 C 17.3125 24.585938 17.488281 24.503906 17.675781 24.5 L 29.96875 24.3125 C 30.398438 24.308594 30.765625 24.617188 30.835938 25.042969 Z M 30.835938 25.042969 " clip-rule="nonzero"/></clipPath><clipPath id="42faf5b70a"><path d="M 18 17 L 37 17 L 37 58 L 18 58 Z M 18 17 " clip-rule="nonzero"/></clipPath><clipPath id="3726667a75"><path d="M 30.933594 16.742188 L 36.78125 18.589844 L 24.230469 58.269531 L 18.386719 56.421875 Z M 30.933594 16.742188 " clip-rule="nonzero"/></clipPath><clipPath id="90ba28233c"><path d="M 33.488281 17.546875 L 36.089844 18.371094 C 36.277344 18.429688 36.429688 18.5625 36.515625 18.738281 C 36.601562 18.914062 36.613281 19.117188 36.542969 19.300781 L 22.652344 56.976562 C 22.507812 57.371094 22.078125 57.578125 21.679688 57.453125 L 19.078125 56.632812 C 18.894531 56.574219 18.738281 56.441406 18.652344 56.265625 C 18.566406 56.089844 18.558594 55.886719 18.625 55.703125 L 32.515625 18.027344 C 32.660156 17.632812 33.089844 17.421875 33.488281 17.546875 Z M 33.488281 17.546875 " clip-rule="nonzero"/></clipPath><clipPath id="1d852f8fed"><path d="M 9 44 L 25 44 L 25 50 L 9 50 Z M 9 44 " clip-rule="nonzero"/></clipPath><clipPath id="46b683398e"><path d="M 23.199219 43.0625 L 24.136719 48.976562 L 10.644531 51.117188 L 9.703125 45.203125 Z M 23.199219 43.0625 " clip-rule="nonzero"/></clipPath><clipPath id="131e4020b9"><path d="M 23.609375 45.636719 L 24.035156 48.332031 C 24.066406 48.515625 24.011719 48.707031 23.890625 48.851562 C 23.769531 48.996094 23.59375 49.078125 23.402344 49.082031 L 11.113281 49.269531 C 10.683594 49.273438 10.3125 48.964844 10.246094 48.539062 L 9.820312 45.847656 C 9.789062 45.660156 9.84375 45.472656 9.964844 45.328125 C 10.085938 45.183594 10.261719 45.097656 10.449219 45.09375 L 22.742188 44.910156 C 23.171875 44.902344 23.542969 45.214844 23.609375 45.636719 Z M 23.609375 45.636719 " clip-rule="nonzero"/></clipPath></defs><g fill="#5271ff" fill-opacity="1"><g transform="translate(40.006832, 44.961269)"><g><path d="M 10.46875 5.390625 C 8.875 5.390625 7.660156 5.175781 6.828125 4.75 C 6.316406 4.46875 5.960938 4.066406 5.765625 3.546875 C 5.566406 3.023438 5.46875 2.171875 5.46875 0.984375 L 5.46875 -2.28125 C 5.46875 -3.46875 5.242188 -4.3125 4.796875 -4.8125 C 4.359375 -5.3125 3.617188 -5.5625 2.578125 -5.5625 L 2.34375 -5.5625 C 2.25 -5.539062 2.148438 -5.53125 2.046875 -5.53125 L 2.046875 -8.234375 L 2.34375 -8.234375 C 2.40625 -8.222656 2.484375 -8.21875 2.578125 -8.21875 C 3.617188 -8.21875 4.359375 -8.46875 4.796875 -8.96875 C 5.242188 -9.476562 5.46875 -10.328125 5.46875 -11.515625 L 5.46875 -14.75 C 5.46875 -15.957031 5.566406 -16.820312 5.765625 -17.34375 C 5.960938 -17.863281 6.316406 -18.265625 6.828125 -18.546875 C 7.660156 -18.972656 8.875 -19.1875 10.46875 -19.1875 L 10.953125 -19.1875 C 11.085938 -19.164062 11.253906 -19.15625 11.453125 -19.15625 L 11.453125 -16.453125 C 11.328125 -16.453125 11.222656 -16.460938 11.140625 -16.484375 L 10.84375 -16.484375 C 10.238281 -16.484375 9.78125 -16.410156 9.46875 -16.265625 C 9.164062 -16.117188 8.945312 -15.863281 8.8125 -15.5 C 8.675781 -15.144531 8.609375 -14.601562 8.609375 -13.875 L 8.609375 -10.765625 C 8.609375 -9.898438 8.523438 -9.210938 8.359375 -8.703125 C 8.191406 -8.203125 7.914062 -7.8125 7.53125 -7.53125 C 7.15625 -7.257812 6.617188 -7.046875 5.921875 -6.890625 C 6.617188 -6.722656 7.15625 -6.503906 7.53125 -6.234375 C 7.914062 -5.960938 8.191406 -5.578125 8.359375 -5.078125 C 8.523438 -4.578125 8.609375 -3.894531 8.609375 -3.03125 L 8.609375 0.109375 C 8.609375 0.835938 8.671875 1.378906 8.796875 1.734375 C 8.921875 2.097656 9.132812 2.347656 9.4375 2.484375 C 9.75 2.617188 10.21875 2.6875 10.84375 2.6875 L 11.140625 2.6875 C 11.222656 2.664062 11.328125 2.65625 11.453125 2.65625 L 11.453125 5.375 C 11.253906 5.375 11.085938 5.378906 10.953125 5.390625 Z M 10.46875 5.390625 "/></g></g></g><g fill="#ffffff" fill-opacity="1"><g transform="translate(53.293099, 44.961269)"><g><path d="M 10.125 0.53125 C 7.289062 0.53125 5.085938 -0.347656 3.515625 -2.109375 C 1.953125 -3.867188 1.171875 -6.347656 1.171875 -9.546875 C 1.171875 -12.785156 1.972656 -15.269531 3.578125 -17 C 5.179688 -18.738281 7.476562 -19.609375 10.46875 -19.609375 C 12.914062 -19.609375 14.84375 -19.015625 16.25 -17.828125 C 17.65625 -16.640625 18.429688 -14.957031 18.578125 -12.78125 L 14.703125 -12.78125 C 14.535156 -13.863281 14.09375 -14.6875 13.375 -15.25 C 12.664062 -15.820312 11.695312 -16.109375 10.46875 -16.109375 C 8.726562 -16.109375 7.410156 -15.546875 6.515625 -14.421875 C 5.628906 -13.304688 5.1875 -11.679688 5.1875 -9.546875 C 5.1875 -7.472656 5.628906 -5.867188 6.515625 -4.734375 C 7.410156 -3.597656 8.6875 -3.03125 10.34375 -3.03125 C 11.539062 -3.03125 12.515625 -3.332031 13.265625 -3.9375 C 14.023438 -4.550781 14.519531 -5.425781 14.75 -6.5625 L 18.609375 -6.5625 C 18.515625 -5.125 18.101562 -3.867188 17.375 -2.796875 C 16.65625 -1.734375 15.675781 -0.910156 14.4375 -0.328125 C 13.195312 0.242188 11.757812 0.53125 10.125 0.53125 Z M 10.125 0.53125 "/></g></g></g><g fill="#ffffff" fill-opacity="1"><g transform="translate(73.057527, 44.961269)"><g><path d="M 8.078125 0.484375 C 5.859375 0.484375 4.113281 -0.179688 2.84375 -1.515625 C 1.570312 -2.859375 0.9375 -4.707031 0.9375 -7.0625 C 0.9375 -8.601562 1.222656 -9.941406 1.796875 -11.078125 C 2.367188 -12.210938 3.191406 -13.085938 4.265625 -13.703125 C 5.335938 -14.316406 6.609375 -14.625 8.078125 -14.625 C 9.546875 -14.625 10.816406 -14.316406 11.890625 -13.703125 C 12.960938 -13.085938 13.785156 -12.210938 14.359375 -11.078125 C 14.941406 -9.941406 15.234375 -8.601562 15.234375 -7.0625 C 15.234375 -4.707031 14.59375 -2.859375 13.3125 -1.515625 C 12.039062 -0.179688 10.296875 0.484375 8.078125 0.484375 Z M 8.078125 -2.6875 C 9.117188 -2.6875 9.925781 -3.066406 10.5 -3.828125 C 11.082031 -4.585938 11.375 -5.664062 11.375 -7.0625 C 11.375 -8.46875 11.085938 -9.546875 10.515625 -10.296875 C 9.953125 -11.046875 9.140625 -11.421875 8.078125 -11.421875 C 7.015625 -11.421875 6.191406 -11.046875 5.609375 -10.296875 C 5.035156 -9.546875 4.75 -8.46875 4.75 -7.0625 C 4.75 -5.664062 5.035156 -4.585938 5.609375 -3.828125 C 6.191406 -3.066406 7.015625 -2.6875 8.078125 -2.6875 Z M 8.078125 -2.6875 "/></g></g></g><g fill="#ffffff" fill-opacity="1"><g transform="translate(89.209104, 44.961269)"><g><path d="M 6.796875 0.484375 C 5.648438 0.484375 4.632812 0.175781 3.75 -0.4375 C 2.863281 -1.0625 2.175781 -1.941406 1.6875 -3.078125 C 1.195312 -4.210938 0.953125 -5.515625 0.953125 -6.984375 C 0.953125 -8.460938 1.195312 -9.78125 1.6875 -10.9375 C 2.175781 -12.09375 2.863281 -12.988281 3.75 -13.625 C 4.632812 -14.269531 5.632812 -14.59375 6.75 -14.59375 C 7.65625 -14.59375 8.46875 -14.398438 9.1875 -14.015625 C 9.90625 -13.640625 10.492188 -13.085938 10.953125 -12.359375 L 10.953125 -19.109375 L 14.625 -19.109375 L 14.625 0 L 11.03125 0 L 11.03125 -1.90625 C 10.476562 -1.082031 9.863281 -0.476562 9.1875 -0.09375 C 8.519531 0.289062 7.722656 0.484375 6.796875 0.484375 Z M 7.859375 -2.765625 C 8.867188 -2.765625 9.632812 -3.132812 10.15625 -3.875 C 10.6875 -4.625 10.953125 -5.71875 10.953125 -7.15625 C 10.953125 -8.476562 10.675781 -9.503906 10.125 -10.234375 C 9.570312 -10.960938 8.789062 -11.328125 7.78125 -11.328125 C 6.84375 -11.328125 6.097656 -10.953125 5.546875 -10.203125 C 5.003906 -9.460938 4.734375 -8.445312 4.734375 -7.15625 C 4.734375 -5.71875 5.003906 -4.625 5.546875 -3.875 C 6.085938 -3.132812 6.859375 -2.765625 7.859375 -2.765625 Z M 7.859375 -2.765625 "/></g></g></g><g fill="#ffffff" fill-opacity="1"><g transform="translate(105.546639, 44.961269)"><g><path d="M 7.578125 0.484375 C 6.234375 0.484375 5.054688 0.175781 4.046875 -0.4375 C 3.046875 -1.0625 2.273438 -1.953125 1.734375 -3.109375 C 1.203125 -4.265625 0.9375 -5.613281 0.9375 -7.15625 C 0.9375 -8.675781 1.203125 -10 1.734375 -11.125 C 2.265625 -12.25 3.023438 -13.113281 4.015625 -13.71875 C 5.003906 -14.320312 6.171875 -14.625 7.515625 -14.625 C 9.679688 -14.625 11.351562 -13.96875 12.53125 -12.65625 C 13.707031 -11.34375 14.296875 -9.472656 14.296875 -7.046875 L 14.296875 -6.453125 C 14.296875 -6.273438 14.285156 -6.144531 14.265625 -6.0625 L 4.84375 -6.0625 C 4.945312 -3.832031 5.921875 -2.71875 7.765625 -2.71875 C 8.398438 -2.71875 8.925781 -2.84375 9.34375 -3.09375 C 9.757812 -3.351562 10.09375 -3.75 10.34375 -4.28125 L 14.109375 -4.28125 C 13.722656 -2.789062 12.953125 -1.625 11.796875 -0.78125 C 10.648438 0.0625 9.242188 0.484375 7.578125 0.484375 Z M 10.390625 -8.53125 C 10.304688 -10.476562 9.375 -11.453125 7.59375 -11.453125 C 6.78125 -11.453125 6.140625 -11.203125 5.671875 -10.703125 C 5.203125 -10.210938 4.925781 -9.488281 4.84375 -8.53125 Z M 10.390625 -8.53125 "/></g></g></g><g fill="#ffffff" fill-opacity="1"><g transform="translate(120.688742, 44.961269)"><g><path d="M 1.96875 -19.109375 L 5.90625 -19.109375 L 5.90625 -3.53125 L 15.234375 -3.53125 L 15.234375 0 L 1.96875 0 Z M 1.96875 -19.109375 "/></g></g></g><g fill="#ffffff" fill-opacity="1"><g transform="translate(136.096498, 44.961269)"><g><path d="M 5.1875 0.5 C 3.820312 0.5 2.765625 0.113281 2.015625 -0.65625 C 1.273438 -1.4375 0.90625 -2.546875 0.90625 -3.984375 C 0.90625 -5.316406 1.273438 -6.332031 2.015625 -7.03125 C 2.765625 -7.726562 3.988281 -8.210938 5.6875 -8.484375 L 7.203125 -8.6875 C 8.816406 -8.863281 9.625 -9.328125 9.625 -10.078125 C 9.625 -10.640625 9.445312 -11.046875 9.09375 -11.296875 C 8.738281 -11.546875 8.144531 -11.671875 7.3125 -11.671875 C 6.550781 -11.671875 5.960938 -11.519531 5.546875 -11.21875 C 5.140625 -10.914062 4.9375 -10.476562 4.9375 -9.90625 L 4.9375 -9.703125 L 1.40625 -9.703125 L 1.40625 -9.96875 C 1.40625 -11.414062 1.914062 -12.550781 2.9375 -13.375 C 3.957031 -14.207031 5.367188 -14.625 7.171875 -14.625 C 9.140625 -14.625 10.648438 -14.28125 11.703125 -13.59375 C 12.765625 -12.914062 13.296875 -11.925781 13.296875 -10.625 L 13.296875 -2.609375 C 13.296875 -2.035156 13.351562 -1.597656 13.46875 -1.296875 C 13.59375 -0.992188 13.800781 -0.773438 14.09375 -0.640625 L 14.09375 0 L 10.15625 0 C 9.882812 -0.550781 9.742188 -1.132812 9.734375 -1.75 C 9.253906 -1.007812 8.628906 -0.445312 7.859375 -0.0625 C 7.085938 0.3125 6.195312 0.5 5.1875 0.5 Z M 6.375 -2.390625 C 7.40625 -2.390625 8.210938 -2.675781 8.796875 -3.25 C 9.378906 -3.832031 9.671875 -4.617188 9.671875 -5.609375 L 9.671875 -6.9375 C 9.242188 -6.738281 8.550781 -6.523438 7.59375 -6.296875 C 6.957031 -6.160156 6.523438 -6.054688 6.296875 -5.984375 C 5.640625 -5.785156 5.175781 -5.546875 4.90625 -5.265625 C 4.644531 -4.984375 4.515625 -4.59375 4.515625 -4.09375 C 4.515625 -3.582031 4.679688 -3.171875 5.015625 -2.859375 C 5.359375 -2.546875 5.8125 -2.390625 6.375 -2.390625 Z M 6.375 -2.390625 "/></g></g></g><g fill="#ffffff" fill-opacity="1"><g transform="translate(151.026082, 44.961269)"><g><path d="M 6.796875 0.484375 C 5.648438 0.484375 4.632812 0.175781 3.75 -0.4375 C 2.863281 -1.0625 2.175781 -1.941406 1.6875 -3.078125 C 1.195312 -4.210938 0.953125 -5.515625 0.953125 -6.984375 C 0.953125 -8.460938 1.195312 -9.78125 1.6875 -10.9375 C 2.175781 -12.09375 2.863281 -12.988281 3.75 -13.625 C 4.632812 -14.269531 5.632812 -14.59375 6.75 -14.59375 C 7.65625 -14.59375 8.46875 -14.398438 9.1875 -14.015625 C 9.90625 -13.640625 10.492188 -13.085938 10.953125 -12.359375 L 10.953125 -19.109375 L 14.625 -19.109375 L 14.625 0 L 11.03125 0 L 11.03125 -1.90625 C 10.476562 -1.082031 9.863281 -0.476562 9.1875 -0.09375 C 8.519531 0.289062 7.722656 0.484375 6.796875 0.484375 Z M 7.859375 -2.765625 C 8.867188 -2.765625 9.632812 -3.132812 10.15625 -3.875 C 10.6875 -4.625 10.953125 -5.71875 10.953125 -7.15625 C 10.953125 -8.476562 10.675781 -9.503906 10.125 -10.234375 C 9.570312 -10.960938 8.789062 -11.328125 7.78125 -11.328125 C 6.84375 -11.328125 6.097656 -10.953125 5.546875 -10.203125 C 5.003906 -9.460938 4.734375 -8.445312 4.734375 -7.15625 C 4.734375 -5.71875 5.003906 -4.625 5.546875 -3.875 C 6.085938 -3.132812 6.859375 -2.765625 7.859375 -2.765625 Z M 7.859375 -2.765625 "/></g></g></g><g fill="#ffffff" fill-opacity="1"><g transform="translate(167.363618, 44.961269)"><g><path d="M 6.796875 0.484375 C 5.648438 0.484375 4.632812 0.175781 3.75 -0.4375 C 2.863281 -1.0625 2.175781 -1.941406 1.6875 -3.078125 C 1.195312 -4.210938 0.953125 -5.515625 0.953125 -6.984375 C 0.953125 -8.460938 1.195312 -9.78125 1.6875 -10.9375 C 2.175781 -12.09375 2.863281 -12.988281 3.75 -13.625 C 4.632812 -14.269531 5.632812 -14.59375 6.75 -14.59375 C 7.65625 -14.59375 8.46875 -14.398438 9.1875 -14.015625 C 9.90625 -13.640625 10.492188 -13.085938 10.953125 -12.359375 L 10.953125 -19.109375 L 14.625 -19.109375 L 14.625 0 L 11.03125 0 L 11.03125 -1.90625 C 10.476562 -1.082031 9.863281 -0.476562 9.1875 -0.09375 C 8.519531 0.289062 7.722656 0.484375 6.796875 0.484375 Z M 7.859375 -2.765625 C 8.867188 -2.765625 9.632812 -3.132812 10.15625 -3.875 C 10.6875 -4.625 10.953125 -5.71875 10.953125 -7.15625 C 10.953125 -8.476562 10.675781 -9.503906 10.125 -10.234375 C 9.570312 -10.960938 8.789062 -11.328125 7.78125 -11.328125 C 6.84375 -11.328125 6.097656 -10.953125 5.546875 -10.203125 C 5.003906 -9.460938 4.734375 -8.445312 4.734375 -7.15625 C 4.734375 -5.71875 5.003906 -4.625 5.546875 -3.875 C 6.085938 -3.132812 6.859375 -2.765625 7.859375 -2.765625 Z M 7.859375 -2.765625 "/></g></g></g><g fill="#ffffff" fill-opacity="1"><g transform="translate(183.701146, 44.961269)"><g><path d="M 7.578125 0.484375 C 6.234375 0.484375 5.054688 0.175781 4.046875 -0.4375 C 3.046875 -1.0625 2.273438 -1.953125 1.734375 -3.109375 C 1.203125 -4.265625 0.9375 -5.613281 0.9375 -7.15625 C 0.9375 -8.675781 1.203125 -10 1.734375 -11.125 C 2.265625 -12.25 3.023438 -13.113281 4.015625 -13.71875 C 5.003906 -14.320312 6.171875 -14.625 7.515625 -14.625 C 9.679688 -14.625 11.351562 -13.96875 12.53125 -12.65625 C 13.707031 -11.34375 14.296875 -9.472656 14.296875 -7.046875 L 14.296875 -6.453125 C 14.296875 -6.273438 14.285156 -6.144531 14.265625 -6.0625 L 4.84375 -6.0625 C 4.945312 -3.832031 5.921875 -2.71875 7.765625 -2.71875 C 8.398438 -2.71875 8.925781 -2.84375 9.34375 -3.09375 C 9.757812 -3.351562 10.09375 -3.75 10.34375 -4.28125 L 14.109375 -4.28125 C 13.722656 -2.789062 12.953125 -1.625 11.796875 -0.78125 C 10.648438 0.0625 9.242188 0.484375 7.578125 0.484375 Z M 10.390625 -8.53125 C 10.304688 -10.476562 9.375 -11.453125 7.59375 -11.453125 C 6.78125 -11.453125 6.140625 -11.203125 5.671875 -10.703125 C 5.203125 -10.210938 4.925781 -9.488281 4.84375 -8.53125 Z M 10.390625 -8.53125 "/></g></g></g><g fill="#ffffff" fill-opacity="1"><g transform="translate(198.843249, 44.961269)"><g><path d="M 1.640625 -14.109375 L 5.15625 -14.109375 L 5.15625 -11.6875 C 5.65625 -12.664062 6.226562 -13.378906 6.875 -13.828125 C 7.53125 -14.285156 8.3125 -14.515625 9.21875 -14.515625 L 9.5625 -14.515625 C 9.613281 -14.492188 9.6875 -14.484375 9.78125 -14.484375 L 9.78125 -10.65625 L 8.53125 -10.65625 C 7.5 -10.65625 6.722656 -10.382812 6.203125 -9.84375 C 5.679688 -9.300781 5.421875 -8.507812 5.421875 -7.46875 L 5.421875 0 L 1.640625 0 Z M 1.640625 -14.109375 "/></g></g></g><g fill="#5271ff" fill-opacity="1"><g transform="translate(209.051328, 44.961269)"><g><path d="M 2.359375 5.390625 C 2.222656 5.378906 2.054688 5.375 1.859375 5.375 L 1.859375 2.65625 C 1.984375 2.65625 2.085938 2.664062 2.171875 2.6875 L 2.46875 2.6875 C 3.070312 2.6875 3.53125 2.613281 3.84375 2.46875 C 4.15625 2.332031 4.375 2.082031 4.5 1.71875 C 4.632812 1.351562 4.703125 0.816406 4.703125 0.109375 L 4.703125 -3 C 4.703125 -3.875 4.785156 -4.5625 4.953125 -5.0625 C 5.117188 -5.570312 5.394531 -5.960938 5.78125 -6.234375 C 6.164062 -6.503906 6.703125 -6.722656 7.390625 -6.890625 C 6.703125 -7.046875 6.164062 -7.257812 5.78125 -7.53125 C 5.394531 -7.8125 5.117188 -8.203125 4.953125 -8.703125 C 4.785156 -9.210938 4.703125 -9.898438 4.703125 -10.765625 L 4.703125 -13.90625 C 4.703125 -14.625 4.632812 -15.164062 4.5 -15.53125 C 4.375 -15.894531 4.15625 -16.144531 3.84375 -16.28125 C 3.53125 -16.414062 3.070312 -16.484375 2.46875 -16.484375 L 2.171875 -16.484375 C 2.085938 -16.460938 1.984375 -16.453125 1.859375 -16.453125 L 1.859375 -19.15625 L 2.734375 -19.15625 C 3.671875 -19.15625 4.429688 -19.101562 5.015625 -19 C 5.609375 -18.894531 6.097656 -18.738281 6.484375 -18.53125 C 6.992188 -18.238281 7.347656 -17.828125 7.546875 -17.296875 C 7.742188 -16.765625 7.84375 -15.914062 7.84375 -14.75 L 7.84375 -11.484375 C 7.84375 -10.296875 8.0625 -9.453125 8.5 -8.953125 C 8.945312 -8.460938 9.691406 -8.21875 10.734375 -8.21875 L 11 -8.234375 L 11.265625 -8.234375 L 11.265625 -5.53125 L 10.796875 -5.53125 C 9.710938 -5.53125 8.945312 -5.285156 8.5 -4.796875 C 8.0625 -4.304688 7.84375 -3.46875 7.84375 -2.28125 L 7.84375 0.984375 C 7.84375 2.191406 7.742188 3.050781 7.546875 3.5625 C 7.347656 4.070312 6.992188 4.46875 6.484375 4.75 C 5.671875 5.175781 4.457031 5.390625 2.84375 5.390625 Z M 2.359375 5.390625 "/></g></g></g><g clip-path="url(#d7c8b6e395)"><g clip-path="url(#4822ce10b0)"><path fill="url(#e9d3d890ee)" d="M 5.152344 21.894531 L 5.152344 52.726562 L 35.433594 52.726562 L 35.433594 21.894531 Z M 5.152344 21.894531 " fill-rule="nonzero"/></g></g><g clip-path="url(#3bc20d3190)"><g clip-path="url(#abc998c2a8)"><g clip-path="url(#42c1234996)"><path fill="#ffffff" d="M 16.460938 16.734375 L 22.351562 18.597656 L 9.804688 58.277344 L 3.910156 56.414062 Z M 16.460938 16.734375 " fill-opacity="1" fill-rule="nonzero"/></g></g></g><g clip-path="url(#acc469fa2c)"><g clip-path="url(#cdeaa1959a)"><g clip-path="url(#c7844a1e73)"><path fill="#ffffff" d="M 27.136719 32.667969 L 28.101562 38.773438 L 14.609375 40.914062 L 13.640625 34.8125 Z M 27.136719 32.667969 " fill-opacity="1" fill-rule="nonzero"/></g></g></g><g clip-path="url(#e75b3270c1)"><g clip-path="url(#af7c6d7b57)"><g clip-path="url(#2c215d61d7)"><path fill="#ffffff" d="M 30.410156 22.371094 L 31.378906 28.476562 L 17.882812 30.617188 L 16.914062 24.511719 Z M 30.410156 22.371094 " fill-opacity="1" fill-rule="nonzero"/></g></g></g><g clip-path="url(#42faf5b70a)"><g clip-path="url(#3726667a75)"><g clip-path="url(#90ba28233c)"><path fill="#ffffff" d="M 30.910156 16.734375 L 36.804688 18.597656 L 24.253906 58.277344 L 18.363281 56.414062 Z M 30.910156 16.734375 " fill-opacity="1" fill-rule="nonzero"/></g></g></g><g clip-path="url(#1d852f8fed)"><g clip-path="url(#46b683398e)"><g clip-path="url(#131e4020b9)"><path fill="#ffffff" d="M 23.183594 42.96875 L 24.152344 49.070312 L 10.660156 51.210938 L 9.691406 45.109375 Z M 23.183594 42.96875 " fill-opacity="1" fill-rule="nonzero"/></g></g></g></svg>