<svg xmlns="http://www.w3.org/2000/svg" xmlns:xlink="http://www.w3.org/1999/xlink" width="500" zoomAndPan="magnify" viewBox="0 0 375 374.999991" height="500" preserveAspectRatio="xMidYMid meet" version="1.0"><defs><clipPath id="af16ed0d37"><path d="M 117 88 L 186 88 L 186 296 L 117 296 Z M 117 88 " clip-rule="nonzero"/></clipPath><clipPath id="b19ea7fe05"><path d="M 155.332031 86.269531 L 185.871094 91.960938 L 147.554688 297.632812 L 117.015625 291.941406 Z M 155.332031 86.269531 " clip-rule="nonzero"/></clipPath><clipPath id="54909797d3"><path d="M 164.988281 88.070312 L 185.871094 91.960938 L 137.90625 295.78125 L 117.023438 291.890625 Z M 164.988281 88.070312 " clip-rule="nonzero"/></clipPath><clipPath id="f6ad2ac246"><path d="M 189 79 L 258 79 L 258 287 L 189 287 Z M 189 79 " clip-rule="nonzero"/></clipPath><clipPath id="dc52c22e1f"><path d="M 227.457031 77.421875 L 258 83.113281 L 219.683594 288.78125 L 189.144531 283.09375 Z M 227.457031 77.421875 " clip-rule="nonzero"/></clipPath><clipPath id="64996cfa88"><path d="M 237.117188 79.222656 L 258 83.113281 L 210.035156 286.929688 L 189.152344 283.042969 Z M 237.117188 79.222656 " clip-rule="nonzero"/></clipPath><clipPath id="1ce73b6fea"><path d="M 151 172 L 227 172 L 227 203 L 151 203 Z M 151 172 " clip-rule="nonzero"/></clipPath><clipPath id="a820c643d1"><path d="M 218.371094 162.796875 L 226.9375 192.65625 L 159.867188 211.902344 L 151.300781 182.042969 Z M 218.371094 162.796875 " clip-rule="nonzero"/></clipPath><clipPath id="94c9578be0"><path d="M 221.078125 172.238281 L 226.9375 192.65625 L 157.210938 202.445312 L 151.351562 182.027344 Z M 221.078125 172.238281 " clip-rule="nonzero"/></clipPath><clipPath id="b5606720ca"><path d="M 162 119 L 237 119 L 237 149 L 162 149 Z M 162 119 " clip-rule="nonzero"/></clipPath><clipPath id="c75852719d"><path d="M 228.820312 109.902344 L 236.882812 139.902344 L 170.554688 157.734375 L 162.488281 127.734375 Z M 228.820312 109.902344 " clip-rule="nonzero"/></clipPath><clipPath id="9b770a0268"><path d="M 231.371094 119.390625 L 236.882812 139.902344 L 168.0625 148.230469 L 162.546875 127.71875 Z M 231.371094 119.390625 " clip-rule="nonzero"/></clipPath><clipPath id="60bd6a2056"><path d="M 139 226 L 214 226 L 214 256 L 139 256 Z M 139 226 " clip-rule="nonzero"/></clipPath><clipPath id="e4a5f80a91"><path d="M 205.203125 216.871094 L 213.484375 246.8125 L 147.289062 265.125 L 139.003906 235.183594 Z M 205.203125 216.871094 " clip-rule="nonzero"/></clipPath><clipPath id="03dfe58d0c"><path d="M 207.824219 226.339844 L 213.484375 246.8125 L 144.726562 255.640625 L 139.0625 235.167969 Z M 207.824219 226.339844 " clip-rule="nonzero"/></clipPath><clipPath id="203fd4f23c"><path d="M 257 178 L 335 178 L 335 256 L 257 256 Z M 257 178 " clip-rule="nonzero"/></clipPath><clipPath id="7fe7aa1a20"><path d="M 272.558594 255.84375 L 257.25 240.535156 L 319.066406 178.71875 L 334.375 194.027344 Z M 272.558594 255.84375 " clip-rule="nonzero"/></clipPath><clipPath id="1f4a12c719"><path d="M 257 131 L 335 131 L 335 210 L 257 210 Z M 257 131 " clip-rule="nonzero"/></clipPath><clipPath id="c3f1877d24"><path d="M 257.25 147.363281 L 272.703125 131.910156 L 334.371094 193.574219 L 318.914062 209.03125 Z M 257.25 147.363281 " clip-rule="nonzero"/></clipPath><clipPath id="9ec3a4ec5a"><path d="M 42 131 L 120 131 L 120 210 L 42 210 Z M 42 131 " clip-rule="nonzero"/></clipPath><clipPath id="0c6bc880b6"><path d="M 103.960938 131.910156 L 119.269531 147.21875 L 57.453125 209.035156 L 42.144531 193.726562 Z M 103.960938 131.910156 " clip-rule="nonzero"/></clipPath><clipPath id="522139651e"><path d="M 42 178 L 120 178 L 120 256 L 42 256 Z M 42 178 " clip-rule="nonzero"/></clipPath><clipPath id="2f4034a97d"><path d="M 119.273438 240.398438 L 103.816406 255.855469 L 42.148438 194.1875 L 57.605469 178.730469 Z M 119.273438 240.398438 " clip-rule="nonzero"/></clipPath></defs><g clip-path="url(#af16ed0d37)"><g clip-path="url(#b19ea7fe05)"><g clip-path="url(#54909797d3)"><path fill="#5271ff" d="M 155.332031 86.269531 L 185.871094 91.960938 L 147.554688 297.632812 L 117.015625 291.941406 Z M 155.332031 86.269531 " fill-opacity="1" fill-rule="nonzero"/></g></g></g><g clip-path="url(#f6ad2ac246)"><g clip-path="url(#dc52c22e1f)"><g clip-path="url(#64996cfa88)"><path fill="#5271ff" d="M 227.457031 77.421875 L 258 83.113281 L 219.683594 288.78125 L 189.144531 283.09375 Z M 227.457031 77.421875 " fill-opacity="1" fill-rule="nonzero"/></g></g></g><g clip-path="url(#1ce73b6fea)"><g clip-path="url(#a820c643d1)"><g clip-path="url(#94c9578be0)"><path fill="#5271ff" d="M 218.371094 162.796875 L 226.9375 192.65625 L 159.867188 211.902344 L 151.300781 182.042969 Z M 218.371094 162.796875 " fill-opacity="1" fill-rule="nonzero"/></g></g></g><g clip-path="url(#b5606720ca)"><g clip-path="url(#c75852719d)"><g clip-path="url(#9b770a0268)"><path fill="#5271ff" d="M 228.820312 109.902344 L 236.882812 139.902344 L 170.554688 157.734375 L 162.488281 127.734375 Z M 228.820312 109.902344 " fill-opacity="1" fill-rule="nonzero"/></g></g></g><g clip-path="url(#60bd6a2056)"><g clip-path="url(#e4a5f80a91)"><g clip-path="url(#03dfe58d0c)"><path fill="#5271ff" d="M 205.203125 216.871094 L 213.484375 246.8125 L 147.289062 265.125 L 139.003906 235.183594 Z M 205.203125 216.871094 " fill-opacity="1" fill-rule="nonzero"/></g></g></g><g clip-path="url(#203fd4f23c)"><g clip-path="url(#7fe7aa1a20)"><path fill="#202024" d="M 272.558594 255.84375 L 257.25 240.535156 L 319.078125 178.707031 L 334.386719 194.015625 Z M 272.558594 255.84375 " fill-opacity="1" fill-rule="nonzero"/></g></g><g clip-path="url(#1f4a12c719)"><g clip-path="url(#c3f1877d24)"><path fill="#202024" d="M 257.25 147.363281 L 272.703125 131.910156 L 334.351562 193.554688 L 318.894531 209.011719 Z M 257.25 147.363281 " fill-opacity="1" fill-rule="nonzero"/></g></g><g clip-path="url(#9ec3a4ec5a)"><g clip-path="url(#0c6bc880b6)"><path fill="#202024" d="M 103.960938 131.910156 L 119.269531 147.21875 L 57.441406 209.042969 L 42.132812 193.738281 Z M 103.960938 131.910156 " fill-opacity="1" fill-rule="nonzero"/></g></g><g clip-path="url(#522139651e)"><g clip-path="url(#2f4034a97d)"><path fill="#202024" d="M 119.273438 240.398438 L 103.816406 255.855469 L 42.171875 194.210938 L 57.628906 178.753906 Z M 119.273438 240.398438 " fill-opacity="1" fill-rule="nonzero"/></g></g></svg>