<svg xmlns="http://www.w3.org/2000/svg" xmlns:xlink="http://www.w3.org/1999/xlink" width="300" zoomAndPan="magnify" viewBox="0 0 224.87999 74.999997" height="100" preserveAspectRatio="xMidYMid meet" version="1.0"><defs><g/><clipPath id="ac24876f59"><path d="M 17 19 L 30 19 L 30 58 L 17 58 Z M 17 19 " clip-rule="nonzero"/></clipPath><clipPath id="43a7496042"><path d="M 24.324219 19.246094 L 29.828125 20.273438 L 22.921875 57.359375 L 17.414062 56.332031 Z M 24.324219 19.246094 " clip-rule="nonzero"/></clipPath><clipPath id="0189bea5ca"><path d="M 26.066406 19.570312 L 29.828125 20.273438 L 21.179688 57.023438 L 17.414062 56.324219 Z M 26.066406 19.570312 " clip-rule="nonzero"/></clipPath><clipPath id="6194144ac5"><path d="M 30 17 L 43 17 L 43 56 L 30 56 Z M 30 17 " clip-rule="nonzero"/></clipPath><clipPath id="db1adaa22f"><path d="M 37.324219 17.652344 L 42.832031 18.675781 L 35.921875 55.761719 L 30.414062 54.738281 Z M 37.324219 17.652344 " clip-rule="nonzero"/></clipPath><clipPath id="dd1d88a8bf"><path d="M 39.066406 17.976562 L 42.832031 18.675781 L 34.183594 55.429688 L 30.417969 54.726562 Z M 39.066406 17.976562 " clip-rule="nonzero"/></clipPath><clipPath id="550726808e"><path d="M 23 34 L 38 34 L 38 41 L 23 41 Z M 23 34 " clip-rule="nonzero"/></clipPath><clipPath id="dbd63bb6ed"><path d="M 35.894531 33.042969 L 37.441406 38.429688 L 25.347656 41.898438 L 23.800781 36.515625 Z M 35.894531 33.042969 " clip-rule="nonzero"/></clipPath><clipPath id="d6e5ccfa01"><path d="M 36.382812 34.746094 L 37.441406 38.429688 L 24.867188 40.195312 L 23.8125 36.511719 Z M 36.382812 34.746094 " clip-rule="nonzero"/></clipPath><clipPath id="c3fb934913"><path d="M 25 25 L 40 25 L 40 31 L 25 31 Z M 25 25 " clip-rule="nonzero"/></clipPath><clipPath id="1b9509aa78"><path d="M 37.777344 23.503906 L 39.234375 28.914062 L 27.273438 32.132812 L 25.816406 26.722656 Z M 37.777344 23.503906 " clip-rule="nonzero"/></clipPath><clipPath id="3427645598"><path d="M 38.238281 25.214844 L 39.234375 28.914062 L 26.824219 30.417969 L 25.828125 26.71875 Z M 38.238281 25.214844 " clip-rule="nonzero"/></clipPath><clipPath id="0d8300e3a5"><path d="M 21 44 L 36 44 L 36 50 L 21 50 Z M 21 44 " clip-rule="nonzero"/></clipPath><clipPath id="04990dcb1a"><path d="M 33.519531 42.792969 L 35.015625 48.195312 L 23.078125 51.496094 L 21.582031 46.097656 Z M 33.519531 42.792969 " clip-rule="nonzero"/></clipPath><clipPath id="f1254c9f93"><path d="M 33.992188 44.503906 L 35.015625 48.195312 L 22.613281 49.785156 L 21.59375 46.09375 Z M 33.992188 44.503906 " clip-rule="nonzero"/></clipPath><clipPath id="dbaf30e9c4"><path d="M 42 35 L 57 35 L 57 50 L 42 50 Z M 42 35 " clip-rule="nonzero"/></clipPath><clipPath id="60fc70f4fc"><path d="M 45.09375 49.816406 L 42.332031 47.054688 L 53.480469 35.910156 L 56.238281 38.667969 Z M 45.09375 49.816406 " clip-rule="nonzero"/></clipPath><clipPath id="d71c308fee"><path d="M 42 27 L 57 27 L 57 42 L 42 42 Z M 42 27 " clip-rule="nonzero"/></clipPath><clipPath id="4e6b4c2bf9"><path d="M 42.332031 30.261719 L 45.121094 27.472656 L 56.242188 38.59375 L 53.453125 41.378906 Z M 42.332031 30.261719 " clip-rule="nonzero"/></clipPath><clipPath id="ed0e6e8ffb"><path d="M 4 27 L 19 27 L 19 42 L 4 42 Z M 4 27 " clip-rule="nonzero"/></clipPath><clipPath id="b6be756481"><path d="M 15.644531 27.476562 L 18.40625 30.234375 L 7.257812 41.382812 L 4.496094 38.621094 Z M 15.644531 27.476562 " clip-rule="nonzero"/></clipPath><clipPath id="cd5b859385"><path d="M 4 35 L 19 35 L 19 50 L 4 50 Z M 4 35 " clip-rule="nonzero"/></clipPath><clipPath id="f06f6cefc2"><path d="M 18.402344 47.035156 L 15.613281 49.820312 L 4.492188 38.703125 L 7.28125 35.914062 Z M 18.402344 47.035156 " clip-rule="nonzero"/></clipPath></defs><g fill="#ffffff" fill-opacity="1"><g transform="translate(61.325677, 48.584311)"><g><path d="M 8.1875 0.265625 C 6.925781 0.265625 5.832031 0.03125 4.90625 -0.4375 C 3.988281 -0.90625 3.273438 -1.566406 2.765625 -2.421875 C 2.265625 -3.285156 2.015625 -4.300781 2.015625 -5.46875 L 2.015625 -13.921875 C 2.015625 -15.097656 2.265625 -16.113281 2.765625 -16.96875 C 3.273438 -17.832031 3.988281 -18.5 4.90625 -18.96875 C 5.832031 -19.4375 6.925781 -19.671875 8.1875 -19.671875 C 9.425781 -19.671875 10.503906 -19.4375 11.421875 -18.96875 C 12.347656 -18.5 13.066406 -17.832031 13.578125 -16.96875 C 14.097656 -16.113281 14.359375 -15.097656 14.359375 -13.921875 L 11 -13.921875 C 11 -14.828125 10.753906 -15.523438 10.265625 -16.015625 C 9.785156 -16.503906 9.09375 -16.75 8.1875 -16.75 C 7.28125 -16.75 6.578125 -16.503906 6.078125 -16.015625 C 5.585938 -15.523438 5.34375 -14.828125 5.34375 -13.921875 L 5.34375 -5.46875 C 5.34375 -4.570312 5.585938 -3.878906 6.078125 -3.390625 C 6.578125 -2.898438 7.28125 -2.65625 8.1875 -2.65625 C 9.09375 -2.65625 9.785156 -2.898438 10.265625 -3.390625 C 10.753906 -3.878906 11 -4.570312 11 -5.46875 L 14.359375 -5.46875 C 14.359375 -4.300781 14.097656 -3.285156 13.578125 -2.421875 C 13.066406 -1.566406 12.347656 -0.90625 11.421875 -0.4375 C 10.503906 0.03125 9.425781 0.265625 8.1875 0.265625 Z M 8.1875 0.265625 "/></g></g></g><g fill="#ffffff" fill-opacity="1"><g transform="translate(77.264089, 48.584311)"><g><path d="M 7.96875 0.234375 C 6.09375 0.234375 4.601562 -0.289062 3.5 -1.34375 C 2.40625 -2.394531 1.859375 -3.816406 1.859375 -5.609375 L 1.859375 -9.015625 C 1.859375 -10.816406 2.40625 -12.238281 3.5 -13.28125 C 4.601562 -14.332031 6.09375 -14.859375 7.96875 -14.859375 C 9.851562 -14.859375 11.34375 -14.332031 12.4375 -13.28125 C 13.539062 -12.238281 14.09375 -10.816406 14.09375 -9.015625 L 14.09375 -5.609375 C 14.09375 -3.816406 13.539062 -2.394531 12.4375 -1.34375 C 11.34375 -0.289062 9.851562 0.234375 7.96875 0.234375 Z M 7.96875 -2.65625 C 8.851562 -2.65625 9.539062 -2.898438 10.03125 -3.390625 C 10.519531 -3.878906 10.765625 -4.582031 10.765625 -5.5 L 10.765625 -9.109375 C 10.765625 -10.035156 10.519531 -10.738281 10.03125 -11.21875 C 9.539062 -11.707031 8.851562 -11.953125 7.96875 -11.953125 C 7.082031 -11.953125 6.394531 -11.707031 5.90625 -11.21875 C 5.425781 -10.738281 5.1875 -10.035156 5.1875 -9.109375 L 5.1875 -5.5 C 5.1875 -4.582031 5.425781 -3.878906 5.90625 -3.390625 C 6.394531 -2.898438 7.082031 -2.65625 7.96875 -2.65625 Z M 7.96875 -2.65625 "/></g></g></g><g fill="#ffffff" fill-opacity="1"><g transform="translate(93.202501, 48.584311)"><g><path d="M 6.640625 0.265625 C 5.222656 0.265625 4.078125 -0.238281 3.203125 -1.25 C 2.328125 -2.257812 1.890625 -3.613281 1.890625 -5.3125 L 1.890625 -9.28125 C 1.890625 -11 2.320312 -12.363281 3.1875 -13.375 C 4.050781 -14.382812 5.203125 -14.890625 6.640625 -14.890625 C 7.648438 -14.890625 8.503906 -14.628906 9.203125 -14.109375 C 9.910156 -13.597656 10.40625 -12.878906 10.6875 -11.953125 L 10.578125 -15.3125 L 10.578125 -19.40625 L 13.90625 -19.40625 L 13.90625 0 L 10.65625 0 L 10.65625 -2.65625 C 10.394531 -1.738281 9.914062 -1.019531 9.21875 -0.5 C 8.53125 0.0078125 7.671875 0.265625 6.640625 0.265625 Z M 7.890625 -2.609375 C 8.742188 -2.609375 9.40625 -2.863281 9.875 -3.375 C 10.34375 -3.882812 10.578125 -4.613281 10.578125 -5.5625 L 10.578125 -9.0625 C 10.578125 -10 10.34375 -10.722656 9.875 -11.234375 C 9.40625 -11.753906 8.742188 -12.015625 7.890625 -12.015625 C 7.046875 -12.015625 6.382812 -11.78125 5.90625 -11.3125 C 5.4375 -10.851562 5.203125 -10.148438 5.203125 -9.203125 L 5.203125 -5.421875 C 5.203125 -4.460938 5.4375 -3.753906 5.90625 -3.296875 C 6.382812 -2.835938 7.046875 -2.609375 7.890625 -2.609375 Z M 7.890625 -2.609375 "/></g></g></g><g fill="#ffffff" fill-opacity="1"><g transform="translate(109.140914, 48.584311)"><g><path d="M 8 0.265625 C 6.757812 0.265625 5.675781 0.0234375 4.75 -0.453125 C 3.832031 -0.929688 3.117188 -1.609375 2.609375 -2.484375 C 2.109375 -3.359375 1.859375 -4.390625 1.859375 -5.578125 L 1.859375 -9.03125 C 1.859375 -10.21875 2.109375 -11.25 2.609375 -12.125 C 3.117188 -13.007812 3.832031 -13.691406 4.75 -14.171875 C 5.675781 -14.648438 6.757812 -14.890625 8 -14.890625 C 9.21875 -14.890625 10.285156 -14.648438 11.203125 -14.171875 C 12.117188 -13.691406 12.828125 -13.019531 13.328125 -12.15625 C 13.835938 -11.300781 14.09375 -10.296875 14.09375 -9.140625 L 14.09375 -6.484375 L 5.046875 -6.484375 L 5.046875 -5.46875 C 5.046875 -4.476562 5.300781 -3.726562 5.8125 -3.21875 C 6.332031 -2.71875 7.0625 -2.46875 8 -2.46875 C 8.6875 -2.46875 9.273438 -2.585938 9.765625 -2.828125 C 10.253906 -3.066406 10.539062 -3.414062 10.625 -3.875 L 13.921875 -3.875 C 13.691406 -2.625 13.035156 -1.617188 11.953125 -0.859375 C 10.878906 -0.109375 9.5625 0.265625 8 0.265625 Z M 5.046875 -9.140625 L 5.046875 -8.640625 L 10.890625 -8.671875 L 10.890625 -9.171875 C 10.890625 -10.179688 10.640625 -10.957031 10.140625 -11.5 C 9.648438 -12.050781 8.9375 -12.328125 8 -12.328125 C 7.019531 -12.328125 6.28125 -12.046875 5.78125 -11.484375 C 5.289062 -10.929688 5.046875 -10.148438 5.046875 -9.140625 Z M 5.046875 -9.140625 "/></g></g></g><g fill="#ffffff" fill-opacity="1"><g transform="translate(125.079326, 48.584311)"><g><path d="M 3.21875 0 L 3.21875 -19.40625 L 6.53125 -19.40625 L 6.53125 -3 L 14.78125 -3 L 14.78125 0 Z M 3.21875 0 "/></g></g></g><g fill="#ffffff" fill-opacity="1"><g transform="translate(141.017738, 48.584311)"><g><path d="M 6.359375 0.265625 C 4.867188 0.265625 3.691406 -0.15625 2.828125 -1 C 1.972656 -1.84375 1.546875 -2.945312 1.546875 -4.3125 C 1.546875 -5.726562 2.03125 -6.851562 3 -7.6875 C 3.976562 -8.53125 5.316406 -8.953125 7.015625 -8.953125 L 10.578125 -8.953125 L 10.578125 -10 C 10.578125 -11.46875 9.71875 -12.203125 8 -12.203125 C 7.21875 -12.203125 6.597656 -12.050781 6.140625 -11.75 C 5.679688 -11.445312 5.425781 -11.019531 5.375 -10.46875 L 2.171875 -10.46875 C 2.242188 -11.78125 2.796875 -12.84375 3.828125 -13.65625 C 4.867188 -14.476562 6.269531 -14.890625 8.03125 -14.890625 C 9.882812 -14.890625 11.328125 -14.453125 12.359375 -13.578125 C 13.390625 -12.710938 13.90625 -11.488281 13.90625 -9.90625 L 13.90625 0 L 10.65625 0 L 10.65625 -2.734375 C 10.53125 -1.796875 10.085938 -1.0625 9.328125 -0.53125 C 8.566406 0 7.578125 0.265625 6.359375 0.265625 Z M 7.421875 -2.4375 C 8.390625 -2.4375 9.15625 -2.675781 9.71875 -3.15625 C 10.289062 -3.632812 10.578125 -4.273438 10.578125 -5.078125 L 10.578125 -6.796875 L 7.171875 -6.796875 C 6.453125 -6.796875 5.878906 -6.59375 5.453125 -6.1875 C 5.023438 -5.78125 4.8125 -5.257812 4.8125 -4.625 C 4.8125 -3.96875 5.035156 -3.4375 5.484375 -3.03125 C 5.941406 -2.632812 6.585938 -2.4375 7.421875 -2.4375 Z M 7.421875 -2.4375 "/></g></g></g><g fill="#ffffff" fill-opacity="1"><g transform="translate(156.95615, 48.584311)"><g><path d="M 6.640625 0.265625 C 5.222656 0.265625 4.078125 -0.238281 3.203125 -1.25 C 2.328125 -2.257812 1.890625 -3.613281 1.890625 -5.3125 L 1.890625 -9.28125 C 1.890625 -11 2.320312 -12.363281 3.1875 -13.375 C 4.050781 -14.382812 5.203125 -14.890625 6.640625 -14.890625 C 7.648438 -14.890625 8.503906 -14.628906 9.203125 -14.109375 C 9.910156 -13.597656 10.40625 -12.878906 10.6875 -11.953125 L 10.578125 -15.3125 L 10.578125 -19.40625 L 13.90625 -19.40625 L 13.90625 0 L 10.65625 0 L 10.65625 -2.65625 C 10.394531 -1.738281 9.914062 -1.019531 9.21875 -0.5 C 8.53125 0.0078125 7.671875 0.265625 6.640625 0.265625 Z M 7.890625 -2.609375 C 8.742188 -2.609375 9.40625 -2.863281 9.875 -3.375 C 10.34375 -3.882812 10.578125 -4.613281 10.578125 -5.5625 L 10.578125 -9.0625 C 10.578125 -10 10.34375 -10.722656 9.875 -11.234375 C 9.40625 -11.753906 8.742188 -12.015625 7.890625 -12.015625 C 7.046875 -12.015625 6.382812 -11.78125 5.90625 -11.3125 C 5.4375 -10.851562 5.203125 -10.148438 5.203125 -9.203125 L 5.203125 -5.421875 C 5.203125 -4.460938 5.4375 -3.753906 5.90625 -3.296875 C 6.382812 -2.835938 7.046875 -2.609375 7.890625 -2.609375 Z M 7.890625 -2.609375 "/></g></g></g><g fill="#ffffff" fill-opacity="1"><g transform="translate(172.894562, 48.584311)"><g><path d="M 6.640625 0.265625 C 5.222656 0.265625 4.078125 -0.238281 3.203125 -1.25 C 2.328125 -2.257812 1.890625 -3.613281 1.890625 -5.3125 L 1.890625 -9.28125 C 1.890625 -11 2.320312 -12.363281 3.1875 -13.375 C 4.050781 -14.382812 5.203125 -14.890625 6.640625 -14.890625 C 7.648438 -14.890625 8.503906 -14.628906 9.203125 -14.109375 C 9.910156 -13.597656 10.40625 -12.878906 10.6875 -11.953125 L 10.578125 -15.3125 L 10.578125 -19.40625 L 13.90625 -19.40625 L 13.90625 0 L 10.65625 0 L 10.65625 -2.65625 C 10.394531 -1.738281 9.914062 -1.019531 9.21875 -0.5 C 8.53125 0.0078125 7.671875 0.265625 6.640625 0.265625 Z M 7.890625 -2.609375 C 8.742188 -2.609375 9.40625 -2.863281 9.875 -3.375 C 10.34375 -3.882812 10.578125 -4.613281 10.578125 -5.5625 L 10.578125 -9.0625 C 10.578125 -10 10.34375 -10.722656 9.875 -11.234375 C 9.40625 -11.753906 8.742188 -12.015625 7.890625 -12.015625 C 7.046875 -12.015625 6.382812 -11.78125 5.90625 -11.3125 C 5.4375 -10.851562 5.203125 -10.148438 5.203125 -9.203125 L 5.203125 -5.421875 C 5.203125 -4.460938 5.4375 -3.753906 5.90625 -3.296875 C 6.382812 -2.835938 7.046875 -2.609375 7.890625 -2.609375 Z M 7.890625 -2.609375 "/></g></g></g><g fill="#ffffff" fill-opacity="1"><g transform="translate(188.832974, 48.584311)"><g><path d="M 8 0.265625 C 6.757812 0.265625 5.675781 0.0234375 4.75 -0.453125 C 3.832031 -0.929688 3.117188 -1.609375 2.609375 -2.484375 C 2.109375 -3.359375 1.859375 -4.390625 1.859375 -5.578125 L 1.859375 -9.03125 C 1.859375 -10.21875 2.109375 -11.25 2.609375 -12.125 C 3.117188 -13.007812 3.832031 -13.691406 4.75 -14.171875 C 5.675781 -14.648438 6.757812 -14.890625 8 -14.890625 C 9.21875 -14.890625 10.285156 -14.648438 11.203125 -14.171875 C 12.117188 -13.691406 12.828125 -13.019531 13.328125 -12.15625 C 13.835938 -11.300781 14.09375 -10.296875 14.09375 -9.140625 L 14.09375 -6.484375 L 5.046875 -6.484375 L 5.046875 -5.46875 C 5.046875 -4.476562 5.300781 -3.726562 5.8125 -3.21875 C 6.332031 -2.71875 7.0625 -2.46875 8 -2.46875 C 8.6875 -2.46875 9.273438 -2.585938 9.765625 -2.828125 C 10.253906 -3.066406 10.539062 -3.414062 10.625 -3.875 L 13.921875 -3.875 C 13.691406 -2.625 13.035156 -1.617188 11.953125 -0.859375 C 10.878906 -0.109375 9.5625 0.265625 8 0.265625 Z M 5.046875 -9.140625 L 5.046875 -8.640625 L 10.890625 -8.671875 L 10.890625 -9.171875 C 10.890625 -10.179688 10.640625 -10.957031 10.140625 -11.5 C 9.648438 -12.050781 8.9375 -12.328125 8 -12.328125 C 7.019531 -12.328125 6.28125 -12.046875 5.78125 -11.484375 C 5.289062 -10.929688 5.046875 -10.148438 5.046875 -9.140625 Z M 5.046875 -9.140625 "/></g></g></g><g fill="#ffffff" fill-opacity="1"><g transform="translate(204.771386, 48.584311)"><g><path d="M 2.578125 0 L 2.578125 -14.625 L 5.828125 -14.625 L 5.828125 -11.78125 C 6.003906 -12.726562 6.441406 -13.484375 7.140625 -14.046875 C 7.835938 -14.609375 8.742188 -14.890625 9.859375 -14.890625 C 11.347656 -14.890625 12.507812 -14.410156 13.34375 -13.453125 C 14.175781 -12.492188 14.59375 -11.15625 14.59375 -9.4375 L 14.59375 -8.046875 L 11.265625 -8.046875 L 11.265625 -9.28125 C 11.265625 -10.164062 11.035156 -10.84375 10.578125 -11.3125 C 10.117188 -11.78125 9.460938 -12.015625 8.609375 -12.015625 C 7.722656 -12.015625 7.050781 -11.75 6.59375 -11.21875 C 6.132812 -10.6875 5.90625 -9.929688 5.90625 -8.953125 L 5.90625 0 Z M 2.578125 0 "/></g></g></g><g clip-path="url(#ac24876f59)"><g clip-path="url(#43a7496042)"><g clip-path="url(#0189bea5ca)"><path fill="#5271ff" d="M 24.324219 19.246094 L 29.828125 20.273438 L 22.921875 57.359375 L 17.414062 56.332031 Z M 24.324219 19.246094 " fill-opacity="1" fill-rule="nonzero"/></g></g></g><g clip-path="url(#6194144ac5)"><g clip-path="url(#db1adaa22f)"><g clip-path="url(#dd1d88a8bf)"><path fill="#5271ff" d="M 37.324219 17.652344 L 42.832031 18.675781 L 35.921875 55.761719 L 30.414062 54.738281 Z M 37.324219 17.652344 " fill-opacity="1" fill-rule="nonzero"/></g></g></g><g clip-path="url(#550726808e)"><g clip-path="url(#dbd63bb6ed)"><g clip-path="url(#d6e5ccfa01)"><path fill="#5271ff" d="M 35.894531 33.042969 L 37.441406 38.429688 L 25.347656 41.898438 L 23.800781 36.515625 Z M 35.894531 33.042969 " fill-opacity="1" fill-rule="nonzero"/></g></g></g><g clip-path="url(#c3fb934913)"><g clip-path="url(#1b9509aa78)"><g clip-path="url(#3427645598)"><path fill="#5271ff" d="M 37.777344 23.503906 L 39.234375 28.914062 L 27.273438 32.132812 L 25.816406 26.722656 Z M 37.777344 23.503906 " fill-opacity="1" fill-rule="nonzero"/></g></g></g><g clip-path="url(#0d8300e3a5)"><g clip-path="url(#04990dcb1a)"><g clip-path="url(#f1254c9f93)"><path fill="#5271ff" d="M 33.519531 42.792969 L 35.015625 48.195312 L 23.078125 51.496094 L 21.582031 46.097656 Z M 33.519531 42.792969 " fill-opacity="1" fill-rule="nonzero"/></g></g></g><g clip-path="url(#dbaf30e9c4)"><g clip-path="url(#60fc70f4fc)"><path fill="#ffffff" d="M 45.09375 49.816406 L 42.332031 47.054688 L 53.480469 35.90625 L 56.242188 38.667969 Z M 45.09375 49.816406 " fill-opacity="1" fill-rule="nonzero"/></g></g><g clip-path="url(#d71c308fee)"><g clip-path="url(#4e6b4c2bf9)"><path fill="#ffffff" d="M 42.332031 30.261719 L 45.121094 27.472656 L 56.234375 38.589844 L 53.449219 41.375 Z M 42.332031 30.261719 " fill-opacity="1" fill-rule="nonzero"/></g></g><g clip-path="url(#ed0e6e8ffb)"><g clip-path="url(#b6be756481)"><path fill="#ffffff" d="M 15.644531 27.476562 L 18.40625 30.234375 L 7.253906 41.382812 L 4.496094 38.625 Z M 15.644531 27.476562 " fill-opacity="1" fill-rule="nonzero"/></g></g><g clip-path="url(#cd5b859385)"><g clip-path="url(#f06f6cefc2)"><path fill="#ffffff" d="M 18.402344 47.035156 L 15.613281 49.820312 L 4.496094 38.707031 L 7.285156 35.917969 Z M 18.402344 47.035156 " fill-opacity="1" fill-rule="nonzero"/></g></g></svg>